<svg width="50" height="50" viewBox="0 0 50 50" fill="none" xmlns="http://www.w3.org/2000/svg">
<mask id="mask0_530_74" style="mask-type:alpha" maskUnits="userSpaceOnUse" x="0" y="0" width="50" height="50">
<rect width="50" height="50" fill="#D9D9D9"/>
</mask>
<g mask="url(#mask0_530_74)">
<path d="M23.1774 31.0937C23.6635 31.5799 24.2712 31.8229 25.0003 31.8229C25.7295 31.8229 26.3371 31.5799 26.8232 31.0937L33.2295 24.6875C33.7156 24.2014 33.9503 23.6111 33.9337 22.9167C33.9156 22.2222 33.6635 21.6493 33.1774 21.1979C32.6913 20.6771 32.101 20.4167 31.4066 20.4167C30.7121 20.4167 30.1219 20.6771 29.6357 21.1979L25.0003 25.7812L20.3128 21.0937C19.792 20.6076 19.1927 20.3729 18.5149 20.3896C17.8385 20.4076 17.2573 20.6597 16.7712 21.1458C16.285 21.6319 16.042 22.2139 16.042 22.8917C16.042 23.568 16.285 24.1667 16.7712 24.6875L23.1774 31.0937ZM25.0003 46.3021C22.0142 46.3021 19.2281 45.7465 16.642 44.6354C14.0545 43.5243 11.8059 42.0139 9.89616 40.1042C7.98644 38.1944 6.47602 35.9458 5.36491 33.3583C4.2538 30.7722 3.69824 27.9861 3.69824 25C3.69824 22.0139 4.2538 19.2271 5.36491 16.6396C6.47602 14.0535 7.98644 11.8055 9.89616 9.89582C11.8059 7.9861 14.0545 6.47568 16.642 5.36457C19.2281 4.25346 22.0142 3.69791 25.0003 3.69791C27.9864 3.69791 30.7725 4.25346 33.3587 5.36457C35.9462 6.47568 38.1948 7.9861 40.1045 9.89582C42.0142 11.8055 43.5246 14.0535 44.6357 16.6396C45.7469 19.2271 46.3024 22.0139 46.3024 25C46.3024 27.9861 45.7469 30.7722 44.6357 33.3583C43.5246 35.9458 42.0142 38.1944 40.1045 40.1042C38.1948 42.0139 35.9462 43.5243 33.3587 44.6354C30.7725 45.7465 27.9864 46.3021 25.0003 46.3021Z" fill="#FD8900"/>
</g>
</svg>
