<svg width="24" height="24" viewBox="0 0 24 24" fill="none" xmlns="http://www.w3.org/2000/svg">
<mask id="mask0_578_7" style="mask-type:alpha" maskUnits="userSpaceOnUse" x="0" y="0" width="24" height="24">
<rect width="24" height="24" fill="#D9D9D9"/>
</mask>
<g mask="url(#mask0_578_7)">
<path d="M12.0251 14.075L13.7251 15.775C13.9584 15.9917 14.2251 16.1 14.5251 16.1C14.8251 16.1 15.0834 15.9917 15.3001 15.775C15.5334 15.5584 15.6501 15.296 15.6501 14.988C15.6501 14.6794 15.5334 14.425 15.3001 14.225L13.5751 12.5L15.3001 10.775C15.5334 10.5584 15.6501 10.2957 15.6501 9.98705C15.6501 9.67905 15.5334 9.42505 15.3001 9.22505C15.1001 8.99172 14.8461 8.87505 14.5381 8.87505C14.2294 8.87505 13.9668 8.99172 13.7501 9.22505L12.0251 10.925L10.3001 9.22505C10.0834 8.99172 9.8251 8.87505 9.5251 8.87505C9.2251 8.87505 8.95843 8.99172 8.7251 9.22505C8.5251 9.42505 8.4251 9.67905 8.4251 9.98705C8.4251 10.2957 8.5251 10.5584 8.7251 10.775L10.4501 12.5L8.7251 14.225C8.50843 14.425 8.4001 14.6794 8.4001 14.988C8.4001 15.296 8.50843 15.5584 8.7251 15.775C8.95843 15.9917 9.2251 16.1 9.5251 16.1C9.8251 16.1 10.0834 15.9917 10.3001 15.775L12.0251 14.075ZM6.9251 21.225C6.2251 21.225 5.62943 20.9794 5.1381 20.4881C4.6461 19.9961 4.4001 19.4001 4.4001 18.7001V6.22505H4.3501C4.01676 6.22505 3.7251 6.10005 3.4751 5.85005C3.2251 5.60005 3.1001 5.30838 3.1001 4.97505C3.1001 4.62505 3.2251 4.32505 3.4751 4.07505C3.7251 3.82505 4.01676 3.70005 4.3501 3.70005H8.7501C8.7501 3.35005 8.8711 3.05005 9.1131 2.80005C9.35443 2.55005 9.6501 2.42505 10.0001 2.42505H14.0251C14.3751 2.42505 14.6711 2.55005 14.9131 2.80005C15.1544 3.05005 15.2751 3.35005 15.2751 3.70005H19.6751C20.0084 3.70005 20.3001 3.82505 20.5501 4.07505C20.8001 4.32505 20.9251 4.62505 20.9251 4.97505C20.9251 5.30838 20.8001 5.60005 20.5501 5.85005C20.3001 6.10005 20.0084 6.22505 19.6751 6.22505H19.6251V18.7001C19.6251 19.4001 19.3794 19.9961 18.8881 20.4881C18.3961 20.9794 17.8001 21.225 17.1001 21.225H6.9251Z" fill="#FD8900"/>
</g>
</svg>
