<svg width="32" height="32" viewBox="0 0 32 32" fill="none" xmlns="http://www.w3.org/2000/svg">
<mask id="mask0_703_96" style="mask-type:alpha" maskUnits="userSpaceOnUse" x="1" y="0" width="31" height="31">
<rect x="1.28003" width="30.72" height="30.72" fill="#D9D9D9"/>
</mask>
<g mask="url(#mask0_703_96)">
<path d="M21.6958 17.248C22.2291 17.248 22.6771 17.0667 23.0398 16.704C23.4025 16.3414 23.5838 15.8934 23.5838 15.36C23.5838 14.8267 23.4025 14.3787 23.0398 14.016C22.6771 13.6534 22.2291 13.472 21.6958 13.472C21.1625 13.472 20.7145 13.6534 20.3518 14.016C19.9891 14.3787 19.8078 14.8267 19.8078 15.36C19.8078 15.8934 19.9891 16.3414 20.3518 16.704C20.7145 17.0667 21.1625 17.248 21.6958 17.248ZM18.0158 21.536C17.3331 21.536 16.7465 21.2958 16.2558 20.8154C15.7651 20.3358 15.5198 19.7547 15.5198 19.072V11.68C15.5198 10.9974 15.7651 10.4107 16.2558 9.92002C16.7465 9.42935 17.3331 9.18402 18.0158 9.18402H27.2318C27.9145 9.18402 28.5011 9.42935 28.9918 9.92002C29.4825 10.4107 29.7278 10.9974 29.7278 11.68V19.072C29.7278 19.7547 29.4825 20.3358 28.9918 20.8154C28.5011 21.2958 27.9145 21.536 27.2318 21.536H18.0158ZM8.06379 27.2C7.14645 27.2 6.37845 26.8907 5.75979 26.272C5.14112 25.6534 4.83179 24.8854 4.83179 23.968V6.75202C4.83179 5.83469 5.14112 5.06669 5.75979 4.44802C6.37845 3.82935 7.14645 3.52002 8.06379 3.52002H25.2478C26.1651 3.52002 26.9331 3.82935 27.5518 4.44802C28.1705 5.06669 28.4798 5.83469 28.4798 6.75202V7.00802H18.0158C16.6718 7.00802 15.5573 7.45047 14.6724 8.33538C13.7867 9.22114 13.3438 10.336 13.3438 11.68V19.072C13.3438 20.4374 13.7867 21.5518 14.6724 22.4154C15.5573 23.2798 16.6718 23.712 18.0158 23.712H28.4798V23.968C28.4798 24.8854 28.1705 25.6534 27.5518 26.272C26.9331 26.8907 26.1651 27.2 25.2478 27.2H8.06379Z" fill="#FD8900"/>
</g>
<mask id="mask1_703_96" style="mask-type:alpha" maskUnits="userSpaceOnUse" x="0" y="1" width="31" height="31">
<rect y="1.28003" width="30.72" height="30.72" fill="#D9D9D9"/>
</mask>
<g mask="url(#mask1_703_96)">
<path d="M20.4158 18.528C20.9491 18.528 21.3971 18.3467 21.7598 17.984C22.1224 17.6214 22.3038 17.1734 22.3038 16.64C22.3038 16.1067 22.1224 15.6587 21.7598 15.296C21.3971 14.9334 20.9491 14.752 20.4158 14.752C19.8824 14.752 19.4344 14.9334 19.0718 15.296C18.7091 15.6587 18.5278 16.1067 18.5278 16.64C18.5278 17.1734 18.7091 17.6214 19.0718 17.984C19.4344 18.3467 19.8824 18.528 20.4158 18.528ZM16.7358 22.816C16.0531 22.816 15.4664 22.5758 14.9758 22.0954C14.4851 21.6158 14.2398 21.0347 14.2398 20.352V12.96C14.2398 12.2774 14.4851 11.6907 14.9758 11.2C15.4664 10.7094 16.0531 10.464 16.7358 10.464H25.9518C26.6344 10.464 27.2211 10.7094 27.7118 11.2C28.2024 11.6907 28.4478 12.2774 28.4478 12.96V20.352C28.4478 21.0347 28.2024 21.6158 27.7118 22.0954C27.2211 22.5758 26.6344 22.816 25.9518 22.816H16.7358ZM6.78376 28.48C5.86642 28.48 5.09842 28.1707 4.47976 27.552C3.86109 26.9334 3.55176 26.1654 3.55176 25.248V8.03205C3.55176 7.11472 3.86109 6.34672 4.47976 5.72805C5.09842 5.10938 5.86642 4.80005 6.78376 4.80005H23.9678C24.8851 4.80005 25.6531 5.10938 26.2718 5.72805C26.8904 6.34672 27.1998 7.11472 27.1998 8.03205V8.28805H16.7358C15.3918 8.28805 14.2773 8.7305 13.3924 9.61541C12.5066 10.5012 12.0638 11.616 12.0638 12.96V20.352C12.0638 21.7174 12.5066 22.8318 13.3924 23.6954C14.2773 24.5598 15.3918 24.992 16.7358 24.992H27.1998V25.248C27.1998 26.1654 26.8904 26.9334 26.2718 27.552C25.6531 28.1707 24.8851 28.48 23.9678 28.48H6.78376Z" fill="#1C1B1F"/>
</g>
</svg>
