<svg width="30" height="30" viewBox="0 0 30 30" fill="none" xmlns="http://www.w3.org/2000/svg">
<path d="M3.875 26.9375V8.25H9.5V2.625H22.5625V13.875H28.1563V26.9375H18.0625V21.3125H13.9375V26.9375H3.875ZM5.6875 25.125H9.5V21.3125H5.6875V25.125ZM5.6875 19.5H9.5V15.7188H5.6875V19.5ZM5.6875 13.8438H9.5V10.0625H5.6875V13.8438ZM11.3125 19.5H15.0937V15.7188H11.3125V19.5ZM11.3125 13.8438H15.0937V10.0625H11.3125V13.8438ZM11.3125 8.25H15.0937V4.4375H11.3125V8.25ZM16.9375 19.5H20.7188V15.7188H16.9375V19.5ZM16.9375 13.8438H20.7188V10.0625H16.9375V13.8438ZM16.9375 8.25H20.7188V4.4375H16.9375V8.25ZM22.5625 25.125H26.3438V21.3125H22.5625V25.125ZM22.5625 19.5H26.3438V15.7188H22.5625V19.5Z" fill="#FD8900"/>
<path d="M2.875 26.9375V8.25H8.5V2.625H21.5625V13.875H27.1563V26.9375H17.0625V21.3125H12.9375V26.9375H2.875ZM4.6875 25.125H8.5V21.3125H4.6875V25.125ZM4.6875 19.5H8.5V15.7188H4.6875V19.5ZM4.6875 13.8438H8.5V10.0625H4.6875V13.8438ZM10.3125 19.5H14.0937V15.7188H10.3125V19.5ZM10.3125 13.8438H14.0937V10.0625H10.3125V13.8438ZM10.3125 8.25H14.0937V4.4375H10.3125V8.25ZM15.9375 19.5H19.7188V15.7188H15.9375V19.5ZM15.9375 13.8438H19.7188V10.0625H15.9375V13.8438ZM15.9375 8.25H19.7188V4.4375H15.9375V8.25ZM21.5625 25.125H25.3438V21.3125H21.5625V25.125ZM21.5625 19.5H25.3438V15.7188H21.5625V19.5Z" fill="black"/>
</svg>
