<svg width="32" height="32" viewBox="0 0 32 32" fill="none" xmlns="http://www.w3.org/2000/svg">
<mask id="mask0_703_97" style="mask-type:alpha" maskUnits="userSpaceOnUse" x="1" y="0" width="31" height="31">
<rect x="1.28003" width="30.72" height="30.72" fill="#D9D9D9"/>
</mask>
<g mask="url(#mask0_703_97)">
<path d="M23.296 17.472C23.552 17.472 23.7653 17.3815 23.936 17.2006C24.1067 17.0189 24.192 16.8 24.192 16.544C24.192 16.288 24.1067 16.0746 23.936 15.904C23.7653 15.7333 23.552 15.648 23.296 15.648H20.096C19.84 15.648 19.6215 15.7333 19.4406 15.904C19.2589 16.0746 19.168 16.288 19.168 16.544C19.168 16.8 19.2589 17.0189 19.4406 17.2006C19.6215 17.3815 19.84 17.472 20.096 17.472H23.296ZM23.296 21.184C23.552 21.184 23.7653 21.0931 23.936 20.9113C24.1067 20.7304 24.192 20.512 24.192 20.256C24.192 20 24.1067 19.7866 23.936 19.616C23.7653 19.4453 23.552 19.36 23.296 19.36H20.096C19.84 19.36 19.6215 19.4453 19.4406 19.616C19.2589 19.7866 19.168 20 19.168 20.256C19.168 20.512 19.2589 20.7304 19.4406 20.9113C19.6215 21.0931 19.84 21.184 20.096 21.184H23.296ZM20.896 8.57597H26.496C27.392 8.57597 28.1549 8.89043 28.7846 9.51933C29.4135 10.1491 29.728 10.912 29.728 11.808V25.216C29.728 26.112 29.4135 26.8749 28.7846 27.5046C28.1549 28.1335 27.392 28.448 26.496 28.448H6.784C5.888 28.448 5.12555 28.1335 4.49664 27.5046C3.86688 26.8749 3.552 26.112 3.552 25.216V11.808C3.552 10.912 3.86688 10.1491 4.49664 9.51933C5.12555 8.89043 5.888 8.57597 6.784 8.57597H12.384V5.27997C12.384 4.44797 12.6775 3.73843 13.2646 3.15133C13.8509 2.56509 14.56 2.27197 15.392 2.27197H17.888C18.72 2.27197 19.4295 2.56509 20.0166 3.15133C20.6029 3.73843 20.896 4.44797 20.896 5.27997V8.57597ZM15.616 10.976H17.664V5.50397H15.616V10.976ZM12.864 19.36C13.376 19.36 13.8133 19.1786 14.176 18.816C14.5387 18.4533 14.72 18.016 14.72 17.504C14.72 16.992 14.5387 16.5546 14.176 16.192C13.8133 15.8293 13.376 15.648 12.864 15.648C12.352 15.648 11.9147 15.8293 11.552 16.192C11.1893 16.5546 11.008 16.992 11.008 17.504C11.008 18.016 11.1893 18.4533 11.552 18.816C11.9147 19.1786 12.352 19.36 12.864 19.36ZM9.12 23.072H16.608V22.56C16.608 22.1973 16.512 21.8611 16.32 21.5513C16.128 21.2424 15.8507 21.0133 15.488 20.864C15.0613 20.672 14.6347 20.5333 14.208 20.448C13.7813 20.3626 13.3333 20.32 12.864 20.32C12.416 20.32 11.9731 20.3626 11.5354 20.448C11.0985 20.5333 10.656 20.672 10.208 20.864C9.888 21.0133 9.62688 21.2373 9.42464 21.536C9.22155 21.8346 9.12 22.176 9.12 22.56V23.072Z" fill="#FD8900"/>
</g>
<mask id="mask1_703_97" style="mask-type:alpha" maskUnits="userSpaceOnUse" x="0" y="1" width="31" height="31">
<rect y="1.28003" width="30.72" height="30.72" fill="#D9D9D9"/>
</mask>
<g mask="url(#mask1_703_97)">
<path d="M22.016 18.752C22.272 18.752 22.4853 18.6615 22.656 18.4806C22.8266 18.2989 22.912 18.08 22.912 17.824C22.912 17.568 22.8266 17.3547 22.656 17.184C22.4853 17.0133 22.272 16.928 22.016 16.928H18.816C18.56 16.928 18.3415 17.0133 18.1606 17.184C17.9789 17.3547 17.888 17.568 17.888 17.824C17.888 18.08 17.9789 18.2989 18.1606 18.4806C18.3415 18.6615 18.56 18.752 18.816 18.752H22.016ZM22.016 22.464C22.272 22.464 22.4853 22.3731 22.656 22.1914C22.8266 22.0105 22.912 21.792 22.912 21.536C22.912 21.28 22.8266 21.0667 22.656 20.896C22.4853 20.7253 22.272 20.64 22.016 20.64H18.816C18.56 20.64 18.3415 20.7253 18.1606 20.896C17.9789 21.0667 17.888 21.28 17.888 21.536C17.888 21.792 17.9789 22.0105 18.1606 22.1914C18.3415 22.3731 18.56 22.464 18.816 22.464H22.016ZM19.616 9.856H25.216C26.112 9.856 26.8749 10.1705 27.5046 10.7994C28.1335 11.4291 28.448 12.192 28.448 13.088V26.496C28.448 27.392 28.1335 28.1549 27.5046 28.7846C26.8749 29.4135 26.112 29.728 25.216 29.728H5.50397C4.60797 29.728 3.84552 29.4135 3.21661 28.7846C2.58685 28.1549 2.27197 27.392 2.27197 26.496V13.088C2.27197 12.192 2.58685 11.4291 3.21661 10.7994C3.84552 10.1705 4.60797 9.856 5.50397 9.856H11.104V6.56C11.104 5.728 11.3975 5.01846 11.9846 4.43136C12.5709 3.84512 13.28 3.552 14.112 3.552H16.608C17.44 3.552 18.1495 3.84512 18.7366 4.43136C19.3229 5.01846 19.616 5.728 19.616 6.56V9.856ZM14.336 12.256H16.384V6.784H14.336V12.256ZM11.584 20.64C12.096 20.64 12.5333 20.4587 12.896 20.096C13.2586 19.7333 13.44 19.296 13.44 18.784C13.44 18.272 13.2586 17.8347 12.896 17.472C12.5333 17.1093 12.096 16.928 11.584 16.928C11.072 16.928 10.6346 17.1093 10.272 17.472C9.90931 17.8347 9.72797 18.272 9.72797 18.784C9.72797 19.296 9.90931 19.7333 10.272 20.096C10.6346 20.4587 11.072 20.64 11.584 20.64ZM7.83997 24.352H15.328V23.84C15.328 23.4773 15.232 23.1411 15.04 22.8314C14.848 22.5225 14.5706 22.2933 14.208 22.144C13.7813 21.952 13.3546 21.8133 12.928 21.728C12.5013 21.6427 12.0533 21.6 11.584 21.6C11.136 21.6 10.6931 21.6427 10.2553 21.728C9.81843 21.8133 9.37597 21.952 8.92797 22.144C8.60797 22.2933 8.34685 22.5173 8.14461 22.816C7.94152 23.1147 7.83997 23.456 7.83997 23.84V24.352Z" fill="#1C1B1F"/>
</g>
</svg>
