<svg width="30" height="30" viewBox="0 0 30 30" fill="none" xmlns="http://www.w3.org/2000/svg">
<path d="M6.21875 23.6875C5.61458 23.6875 5.09375 23.4688 4.65625 23.0312C4.21875 22.5938 4 22.0729 4 21.4688V6.21875C4 5.61458 4.21875 5.09375 4.65625 4.65625C5.09375 4.21875 5.61458 4 6.21875 4H26.5312C27.1354 4 27.6562 4.21875 28.0938 4.65625C28.5312 5.09375 28.75 5.61458 28.75 6.21875V21.4688C28.75 22.0729 28.5312 22.5938 28.0938 23.0312C27.6562 23.4688 27.1354 23.6875 26.5312 23.6875H6.21875ZM16.375 14.375L26.9375 7.5L26.7188 5.8125L16.375 12.5312L6.03125 5.8125L5.8125 7.5L16.375 14.375Z" fill="#FD8900"/>
<path d="M4.84375 24.8438C4.23958 24.8438 3.71875 24.625 3.28125 24.1875C2.84375 23.75 2.625 23.2292 2.625 22.625V7.375C2.625 6.77083 2.84375 6.25 3.28125 5.8125C3.71875 5.375 4.23958 5.15625 4.84375 5.15625H25.1562C25.7604 5.15625 26.2812 5.375 26.7188 5.8125C27.1562 6.25 27.375 6.77083 27.375 7.375V22.625C27.375 23.2292 27.1562 23.75 26.7188 24.1875C26.2812 24.625 25.7604 24.8438 25.1562 24.8438H4.84375ZM15 15.5312L25.5625 8.65625L25.3438 6.96875L15 13.6875L4.65625 6.96875L4.4375 8.65625L15 15.5312Z" fill="black"/>
</svg>
