<svg width="30" height="30" viewBox="0 0 30 30" fill="none" xmlns="http://www.w3.org/2000/svg">
<path d="M25.25 13.9688C25.1667 11.4896 24.2396 9.36458 22.4688 7.59375C20.6979 5.82292 18.5729 4.89583 16.0938 4.8125V3C17.5729 3.04167 18.974 3.35937 20.2969 3.95312C21.6198 4.54687 22.7708 5.33333 23.75 6.3125C24.7292 7.29167 25.5208 8.44271 26.125 9.76562C26.7292 11.0885 27.0417 12.4896 27.0625 13.9688H25.25ZM19.9688 13.9688C19.8438 12.9479 19.4219 12.0781 18.7031 11.3594C17.9844 10.6406 17.1146 10.2292 16.0938 10.125V8.3125C17.6146 8.39583 18.9167 8.97917 20 10.0625C21.0833 11.1458 21.6771 12.4479 21.7812 13.9688H19.9688ZM25.8125 25.4375C23.3125 25.4375 20.8229 24.8177 18.3438 23.5781C15.8646 22.3385 13.6354 20.7292 11.6562 18.75C9.67708 16.7708 8.07292 14.5417 6.84375 12.0625C5.61458 9.58333 5 7.09375 5 4.59375C5 4.19792 5.125 3.86979 5.375 3.60937C5.625 3.34896 5.95833 3.21875 6.375 3.21875H10.5312C10.8646 3.21875 11.151 3.32812 11.3906 3.54688C11.6302 3.76562 11.7917 4.04167 11.875 4.375L12.6875 8.1875C12.7292 8.5 12.7135 8.78125 12.6406 9.03125C12.5677 9.28125 12.4583 9.46875 12.3125 9.59375L9.21875 12.625C10.3646 14.5417 11.6719 16.224 13.1406 17.6719C14.6094 19.1198 16.2292 20.3438 18 21.3438L21.0625 18.2187C21.25 18.0104 21.4531 17.8646 21.6719 17.7813C21.8906 17.6979 22.125 17.6875 22.375 17.75L26.0312 18.5938C26.3646 18.6563 26.6406 18.8177 26.8594 19.0781C27.0781 19.3385 27.1875 19.6354 27.1875 19.9688V24.0312C27.1875 24.4479 27.0625 24.7865 26.8125 25.0469C26.5625 25.3073 26.2292 25.4375 25.8125 25.4375Z" fill="#FD8900"/>
<path d="M24.1562 14.5938C24.0729 12.1146 23.1458 9.98958 21.375 8.21875C19.6042 6.44792 17.4792 5.52083 15 5.4375V3.625C16.4792 3.66667 17.8802 3.98437 19.2031 4.57812C20.526 5.17187 21.6771 5.95833 22.6562 6.9375C23.6354 7.91667 24.4271 9.06771 25.0312 10.3906C25.6354 11.7135 25.9479 13.1146 25.9688 14.5938H24.1562ZM18.875 14.5938C18.75 13.5729 18.3281 12.7031 17.6094 11.9844C16.8906 11.2656 16.0208 10.8542 15 10.75V8.9375C16.5208 9.02083 17.8229 9.60417 18.9062 10.6875C19.9896 11.7708 20.5833 13.0729 20.6875 14.5938H18.875ZM24.7188 26.0625C22.2188 26.0625 19.7292 25.4427 17.25 24.2031C14.7708 22.9635 12.5417 21.3542 10.5625 19.375C8.58333 17.3958 6.97917 15.1667 5.75 12.6875C4.52083 10.2083 3.90625 7.71875 3.90625 5.21875C3.90625 4.82292 4.03125 4.49479 4.28125 4.23437C4.53125 3.97396 4.86458 3.84375 5.28125 3.84375H9.4375C9.77083 3.84375 10.0573 3.95312 10.2969 4.17188C10.5365 4.39062 10.6979 4.66667 10.7812 5L11.5937 8.8125C11.6354 9.125 11.6198 9.40625 11.5469 9.65625C11.474 9.90625 11.3646 10.0938 11.2188 10.2188L8.125 13.25C9.27083 15.1667 10.5781 16.849 12.0469 18.2969C13.5156 19.7448 15.1354 20.9688 16.9062 21.9688L19.9688 18.8437C20.1562 18.6354 20.3594 18.4896 20.5781 18.4063C20.7969 18.3229 21.0312 18.3125 21.2812 18.375L24.9375 19.2188C25.2708 19.2813 25.5469 19.4427 25.7656 19.7031C25.9844 19.9635 26.0938 20.2604 26.0938 20.5938V24.6562C26.0938 25.0729 25.9688 25.4115 25.7188 25.6719C25.4688 25.9323 25.1354 26.0625 24.7188 26.0625Z" fill="black"/>
</svg>
