<svg width="24" height="24" viewBox="0 0 24 24" fill="none" xmlns="http://www.w3.org/2000/svg">
<mask id="mask0_589_7" style="mask-type:alpha" maskUnits="userSpaceOnUse" x="0" y="0" width="24" height="24">
<rect width="24" height="24" fill="#D9D9D9"/>
</mask>
<g mask="url(#mask0_589_7)">
<path d="M12.025 16.875C12.275 16.875 12.4917 16.7833 12.675 16.6C12.8583 16.4167 12.95 16.1917 12.95 15.925V12.95H15.975C16.225 12.95 16.4377 12.8583 16.613 12.675C16.7877 12.4917 16.875 12.2667 16.875 12C16.875 11.75 16.7833 11.5333 16.6 11.35C16.4167 11.1667 16.2 11.075 15.95 11.075H12.95V8.025C12.95 7.775 12.8627 7.56233 12.688 7.387C12.5127 7.21233 12.2917 7.125 12.025 7.125C11.7583 7.125 11.5333 7.21667 11.35 7.4C11.1667 7.58333 11.075 7.8 11.075 8.05V11.075H8.05C7.78333 11.075 7.56267 11.1623 7.388 11.337C7.21267 11.5123 7.125 11.7333 7.125 12C7.125 12.2667 7.21667 12.4917 7.4 12.675C7.58333 12.8583 7.80833 12.95 8.075 12.95H11.075V15.95C11.075 16.2167 11.1667 16.4377 11.35 16.613C11.5333 16.7877 11.7583 16.875 12.025 16.875ZM12 21.75C10.65 21.75 9.38333 21.496 8.2 20.988C7.01667 20.4793 5.98333 19.7833 5.1 18.9C4.21667 18.0167 3.521 16.9833 3.013 15.8C2.50433 14.6167 2.25 13.35 2.25 12C2.25 10.6333 2.50433 9.35833 3.013 8.175C3.521 6.99167 4.21667 5.96233 5.1 5.087C5.98333 4.21233 7.01667 3.52067 8.2 3.012C9.38333 2.504 10.65 2.25 12 2.25C13.3667 2.25 14.6417 2.504 15.825 3.012C17.0083 3.52067 18.0377 4.21233 18.913 5.087C19.7877 5.96233 20.4793 6.99167 20.988 8.175C21.496 9.35833 21.75 10.6333 21.75 12C21.75 13.35 21.496 14.6167 20.988 15.8C20.4793 16.9833 19.7877 18.0167 18.913 18.9C18.0377 19.7833 17.0083 20.4793 15.825 20.988C14.6417 21.496 13.3667 21.75 12 21.75Z" fill="#FAFAFA"/>
</g>
</svg>
