<svg width="24" height="24" viewBox="0 0 24 24" fill="none" xmlns="http://www.w3.org/2000/svg">
<mask id="mask0_581_61" style="mask-type:alpha" maskUnits="userSpaceOnUse" x="0" y="0" width="24" height="24">
<rect width="24" height="24" fill="#D9D9D9"/>
</mask>
<g mask="url(#mask0_581_61)">
<path d="M5.275 21.25C4.575 21.25 3.97933 21.004 3.488 20.512C2.996 20.0207 2.75 19.425 2.75 18.725V5.275C2.75 4.575 2.996 3.979 3.488 3.487C3.97933 2.99567 4.575 2.75 5.275 2.75H16.025C16.3583 2.75 16.6793 2.81267 16.988 2.938C17.296 3.06267 17.575 3.25 17.825 3.5L20.5 6.175C20.75 6.425 20.9373 6.704 21.062 7.012C21.1873 7.32067 21.25 7.64167 21.25 7.975V18.725C21.25 19.425 21.0043 20.0207 20.513 20.512C20.021 21.004 19.425 21.25 18.725 21.25H5.275ZM12 17.65C12.8 17.65 13.475 17.375 14.025 16.825C14.575 16.275 14.85 15.6 14.85 14.8C14.85 14.0167 14.575 13.3457 14.025 12.787C13.475 12.229 12.8 11.95 12 11.95C11.2167 11.95 10.546 12.229 9.988 12.787C9.42933 13.3457 9.15 14.0167 9.15 14.8C9.15 15.6 9.42933 16.275 9.988 16.825C10.546 17.375 11.2167 17.65 12 17.65ZM7.55 10.15H13.825C14.175 10.15 14.471 10.029 14.713 9.787C14.9543 9.54567 15.075 9.25 15.075 8.9V7.55C15.075 7.2 14.9543 6.904 14.713 6.662C14.471 6.42067 14.175 6.3 13.825 6.3H7.55C7.2 6.3 6.90433 6.42067 6.663 6.662C6.421 6.904 6.3 7.2 6.3 7.55V8.9C6.3 9.25 6.421 9.54567 6.663 9.787C6.90433 10.029 7.2 10.15 7.55 10.15Z" fill="#FAFAFA"/>
</g>
</svg>
