<svg width="24" height="24" viewBox="0 0 24 24" fill="none" xmlns="http://www.w3.org/2000/svg">
<mask id="mask0_636_11" style="mask-type:alpha" maskUnits="userSpaceOnUse" x="0" y="0" width="24" height="24">
<rect width="24" height="24" fill="#D9D9D9"/>
</mask>
<g mask="url(#mask0_636_11)">
<path d="M11.075 14.625V17.85C11.075 18.1167 11.1667 18.3417 11.35 18.525C11.5333 18.7084 11.7583 18.8 12.025 18.8C12.275 18.8 12.4917 18.7084 12.675 18.525C12.8583 18.3417 12.95 18.1167 12.95 17.85V14.625L13.925 15.575C14.0083 15.6584 14.1083 15.7207 14.225 15.762C14.3417 15.804 14.4627 15.825 14.588 15.825C14.7127 15.825 14.8293 15.804 14.938 15.762C15.046 15.7207 15.15 15.6584 15.25 15.575C15.4333 15.3917 15.525 15.1667 15.525 14.9C15.525 14.6334 15.4333 14.4084 15.25 14.225L12.925 11.9C12.7917 11.7834 12.65 11.6877 12.5 11.613C12.35 11.5377 12.1917 11.5 12.025 11.5C11.8417 11.5 11.675 11.5377 11.525 11.613C11.375 11.6877 11.2333 11.7834 11.1 11.9L8.775 14.225C8.59167 14.4084 8.5 14.6334 8.5 14.9C8.5 15.1667 8.6 15.3917 8.8 15.575C8.98333 15.7584 9.20833 15.8457 9.475 15.837C9.74167 15.829 9.96667 15.7334 10.15 15.55L11.075 14.625ZM6.275 22.225C5.55833 22.225 4.95833 21.9834 4.475 21.5C3.99167 21.0167 3.75 20.4167 3.75 19.7V4.30002C3.75 3.58336 3.99167 2.98336 4.475 2.50002C4.95833 2.01669 5.55833 1.77502 6.275 1.77502H13.15C13.4833 1.77502 13.8043 1.83736 14.113 1.96202C14.421 2.08736 14.7 2.26669 14.95 2.50002L19.5 7.07502C19.75 7.32502 19.9373 7.60002 20.062 7.90002C20.1873 8.20002 20.25 8.51669 20.25 8.85002V19.7C20.25 20.4167 20.0083 21.0167 19.525 21.5C19.0417 21.9834 18.4417 22.225 17.725 22.225H6.275ZM12.9 7.85002C12.9 8.20002 13.025 8.50002 13.275 8.75002C13.525 9.00002 13.825 9.12502 14.175 9.12502H17.725L12.9 4.30002V7.85002Z" fill="#FD8900"/>
</g>
</svg>
